<svg width="512" height="470" viewBox="0 0 512 470" fill="none" xmlns="http://www.w3.org/2000/svg">
<path d="M341.3 0.300049V85.6001H128C57.3 85.6001 0 142.9 0 213.6C0 235.1 5.8 255 15.2 272.8L68 235.2C65.6 228.4 64 221.3 64 213.7C64 178.3 92.7 149.7 128 149.7H341.3V235L512 128.3V107L341.3 0.300049ZM444 234.8C446.4 241.6 448 248.7 448 256.3C448 291.7 419.4 320.3 384 320.3H170.7V235L0 341.7V363L170.7 469.7V384.4H384C454.7 384.4 512 327.1 512 256.4C512 234.9 506.2 215 496.8 197.2L444 234.8Z" fill="#9A8C98"/>
</svg>
